{"asset":{"generator":"Khronos glTF Spline I/O v0.0.1","version":"2.0"},"scenes":[{"nodes":[0]}],"nodes":[{"name":"","children":[1,2,3]},{"name":"Default Camera","camera":0,"translation":[595.3021858421307,582.3420484234516,590.8099984439073],"rotation":[-0.2798481423331212,0.364705199631001,0.11591689595929515,0.8804762392171493],"children":[4]},{"name":"bag_plastic","matrix":[0.75,0,0,0,0,0.75,0,0,0,0,0.75,0,0,0,0,1],"children":[5,6,7,8,9,10,11]},{"name":"Personal Camera","camera":1,"translation":[595.3021858421307,582.3420484234516,590.8099984439073],"rotation":[-0.2798481423331212,0.36470519963100095,0.11591689595929512,0.8804762392171493]},{"name":"Default Directional Light","translation":[850000,1300000,1000000],"rotation":[-0.45895513091666534,0.1367267597249462,-0.25064115022945466,0.8413352451859125],"extensions":{"KHR_lights_punctual":{"light":0}}},{"name":"bag","matrix":[0.779234463442302,0,0,0,0,1,0,0,0,0,0.19923985947196662,0,0.05295883636745202,1.353744506835909,5.684341886080802e-14,1],"mesh":0},{"name":"holder_front","matrix":[0.0004202921742285475,-1.343833896215223,0.07326107363197187,0,1.181934084449847,0.0004981451390186443,0.000552702469904431,0,0.0005032555046507556,-0.03263648571538943,-0.9312987828335004,0,0.7625335038014782,405.91937170123583,44.65241475678391,0.9999999999999998],"mesh":1},{"name":"holder_back","matrix":[0.0004202921742285475,-1.343833896215223,-0.07326107363197187,0,1.181934084449847,0.0004981451390186443,-0.000552702469904431,0,0.0005032555046507556,-0.03263648571538943,0.9312987828335004,0,0.7625335038014782,405.91937170123583,-44.8538844627428,0.9999999999999998],"mesh":2},{"name":"ring_back_right","matrix":[1.06857738382185,0,0,0,0,-0.09044887831830975,1.0647425161166906,0,0,-1.0647425161167037,-0.09044887831831079,0,74.55859053745917,271.69217323726116,-57.431495498291554,1],"mesh":3},{"name":"ring_front_right","matrix":[1.0685773838218524,0,0,0,0,0.0881584147660709,1.0649346079086182,0,0,-1.0649346079086295,0.08815841476607185,0,74.55859053746826,271.7810932941245,57.108884022316204,1],"mesh":4},{"name":"ring_back_left","matrix":[1.06857738382185,0,0,0,0,-0.09044887831830932,1.064742516116694,0,0,-1.0647425161167032,-0.09044887831831007,0,-72.81751492814101,271.69217323726116,-57.431495498291554,1],"mesh":5},{"name":"ring_front_left","matrix":[1.0685773838218524,0,0,0,0,0.0881584147660709,1.0649346079086182,0,0,-1.0649346079086295,0.08815841476607185,0,-72.81751492812964,271.7810932941245,57.108884022316204,1],"mesh":6}],"cameras":[{"type":"orthographic","orthographic":{"xmag":1280,"ymag":616,"zfar":50000,"znear":-50000}},{"type":"orthographic","orthographic":{"xmag":1280,"ymag":616,"zfar":100000,"znear":-100000}}],"meshes":[{"primitives":[{"attributes":{"POSITION":1,"NORMAL":2},"indices":0}]},{"primitives":[{"attributes":{"POSITION":4,"NORMAL":5},"indices":3}]},{"primitives":[{"attributes":{"POSITION":7,"NORMAL":8},"indices":6}]},{"primitives":[{"attributes":{"POSITION":10,"NORMAL":11,"TEXCOORD_0":12},"indices":9}]},{"primitives":[{"attributes":{"POSITION":14,"NORMAL":15,"TEXCOORD_0":16},"indices":13}]},{"primitives":[{"attributes":{"POSITION":18,"NORMAL":19,"TEXCOORD_0":20},"indices":17}]},{"primitives":[{"attributes":{"POSITION":22,"NORMAL":23,"TEXCOORD_0":24},"indices":21}]}],"buffers":[{"uri":"data:application/octet-stream;base64,","byteLength":1152000},{"uri":"data:application/octet-stream;base64,","byteLength":737280},{"uri":"data:application/octet-stream;base64,","byteLength":737280},{"uri":"data:application/octet-stream;base64,","byteLength":22784},{"uri":"data:application/octet-stream;base64,","byteLength":22784},{"uri":"data:application/octet-stream;base64,","byteLength":22784},{"uri":"data:application/octet-stream;base64,","byteLength":22784}],"bufferViews":[{"buffer":0,"byteOffset":0,"byteLength":230400,"target":34963},{"buffer":0,"byteOffset":230400,"byteLength":460800,"target":34962},{"buffer":0,"byteOffset":691200,"byteLength":460800,"target":34962},{"buffer":1,"byteOffset":0,"byteLength":147456,"target":34963},{"buffer":1,"byteOffset":147456,"byteLength":294912,"target":34962},{"buffer":1,"byteOffset":442368,"byteLength":294912,"target":34962},{"buffer":2,"byteOffset":0,"byteLength":147456,"target":34963},{"buffer":2,"byteOffset":147456,"byteLength":294912,"target":34962},{"buffer":2,"byteOffset":442368,"byteLength":294912,"target":34962},{"buffer":3,"byteOffset":0,"byteLength":6144,"target":34963},{"buffer":3,"byteOffset":6144,"byteLength":6240,"target":34962},{"buffer":3,"byteOffset":12384,"byteLength":6240,"target":34962},{"buffer":3,"byteOffset":18624,"byteLength":4160,"target":34962},{"buffer":4,"byteOffset":0,"byteLength":6144,"target":34963},{"buffer":4,"byteOffset":6144,"byteLength":6240,"target":34962},{"buffer":4,"byteOffset":12384,"byteLength":6240,"target":34962},{"buffer":4,"byteOffset":18624,"byteLength":4160,"target":34962},{"buffer":5,"byteOffset":0,"byteLength":6144,"target":34963},{"buffer":5,"byteOffset":6144,"byteLength":6240,"target":34962},{"buffer":5,"byteOffset":12384,"byteLength":6240,"target":34962},{"buffer":5,"byteOffset":18624,"byteLength":4160,"target":34962},{"buffer":6,"byteOffset":0,"byteLength":6144,"target":34963},{"buffer":6,"byteOffset":6144,"byteLength":6240,"target":34962},{"buffer":6,"byteOffset":12384,"byteLength":6240,"target":34962},{"buffer":6,"byteOffset":18624,"byteLength":4160,"target":34962}],"accessors":[{"bufferView":0,"byteOffset":0,"componentType":5125,"count":57600,"type":"SCALAR","min":[0],"max":[38399]},{"bufferView":1,"byteOffset":0,"componentType":5126,"count":38400,"type":"VEC3","min":[-289.46044921875,-292.2074890136719,-534.124755859375],"max":[289.457763671875,289.459716796875,534.124755859375]},{"bufferView":2,"byteOffset":0,"componentType":5126,"count":38400,"type":"VEC3","min":[-0.9999977946281433,-1,-0.9905411601066589],"max":[0.9999978542327881,1,0.9982908368110657]},{"bufferView":3,"byteOffset":0,"componentType":5125,"count":36864,"type":"SCALAR","min":[0],"max":[24575]},{"bufferView":4,"byteOffset":0,"componentType":5126,"count":24576,"type":"VEC3","min":[-64.49934387207031,-65.92871856689453,-7.705109119415283],"max":[103.77913665771484,65.92933654785156,3.3859829902648926]},{"bufferView":5,"byteOffset":0,"componentType":5126,"count":24576,"type":"VEC3","min":[-1,-0.9999994039535522,-1],"max":[1,0.9999994039535522,1]},{"bufferView":6,"byteOffset":0,"componentType":5125,"count":36864,"type":"SCALAR","min":[0],"max":[24575]},{"bufferView":7,"byteOffset":0,"componentType":5126,"count":24576,"type":"VEC3","min":[-64.49934387207031,-65.92871856689453,-7.705109119415283],"max":[103.77913665771484,65.92933654785156,3.3859829902648926]},{"bufferView":8,"byteOffset":0,"componentType":5126,"count":24576,"type":"VEC3","min":[-1,-0.9999994039535522,-1],"max":[1,0.9999994039535522,1]},{"bufferView":9,"byteOffset":0,"componentType":5123,"count":3072,"type":"SCALAR","min":[0],"max":[519]},{"bufferView":10,"byteOffset":0,"componentType":5126,"count":520,"type":"VEC3","min":[-7.5,-1,-7.5],"max":[7.5,1,7.5]},{"bufferView":11,"byteOffset":0,"componentType":5126,"count":520,"type":"VEC3","min":[-1,-1,-1],"max":[1,1,1]},{"bufferView":12,"byteOffset":0,"componentType":5126,"count":520,"type":"VEC2","min":[0,0],"max":[1,1]},{"bufferView":13,"byteOffset":0,"componentType":5123,"count":3072,"type":"SCALAR","min":[0],"max":[519]},{"bufferView":14,"byteOffset":0,"componentType":5126,"count":520,"type":"VEC3","min":[-7.5,-1,-7.5],"max":[7.5,1,7.5]},{"bufferView":15,"byteOffset":0,"componentType":5126,"count":520,"type":"VEC3","min":[-1,-1,-1],"max":[1,1,1]},{"bufferView":16,"byteOffset":0,"componentType":5126,"count":520,"type":"VEC2","min":[0,0],"max":[1,1]},{"bufferView":17,"byteOffset":0,"componentType":5123,"count":3072,"type":"SCALAR","min":[0],"max":[519]},{"bufferView":18,"byteOffset":0,"componentType":5126,"count":520,"type":"VEC3","min":[-7.5,-1,-7.5],"max":[7.5,1,7.5]},{"bufferView":19,"byteOffset":0,"componentType":5126,"count":520,"type":"VEC3","min":[-1,-1,-1],"max":[1,1,1]},{"bufferView":20,"byteOffset":0,"componentType":5126,"count":520,"type":"VEC2","min":[0,0],"max":[1,1]},{"bufferView":21,"byteOffset":0,"componentType":5123,"count":3072,"type":"SCALAR","min":[0],"max":[519]},{"bufferView":22,"byteOffset":0,"componentType":5126,"count":520,"type":"VEC3","min":[-7.5,-1,-7.5],"max":[7.5,1,7.5]},{"bufferView":23,"byteOffset":0,"componentType":5126,"count":520,"type":"VEC3","min":[-1,-1,-1],"max":[1,1,1]},{"bufferView":24,"byteOffset":0,"componentType":5126,"count":520,"type":"VEC2","min":[0,0],"max":[1,1]}],"extensions":{"KHR_lights_punctual":{"lights":[{"type":"directional","name":"Default Directional Light","color":[1,1,1],"intensity":0.75}]}},"extensionsUsed":["KHR_lights_punctual"]}