{"asset":{"generator":"3D Builder","version":"2.0"},"scene":0,"scenes":[{"nodes":[0]}],"nodes":[{"mesh":0,"matrix":[1,0,0,0,0,-1.1920928955078125E-7,-0.99999988079071045,0,0,0.99999988079071045,-1.1920928955078125E-7,0,0,0,0,1]}],"meshes":[{"primitives":[{"attributes":{"POSITION":0},"mode":4,"indices":1,"material":0}]}],"materials":[{"name":"Translucent","pbrMetallicRoughness":{"baseColorFactor":[0.018808826804161072,0.50488013029098511,0.079219736158847809,1],"metallicFactor":0,"roughnessFactor":1},"alphaMode":"OPAQUE"}],"accessors":[{"bufferView":0,"byteOffset":0,"count":767,"componentType":5126,"type":"VEC3","min":[-0.020546585321426392,-0.020674204453825951,0.019091865047812462],"max":[0.020516430959105492,0.020658083260059357,0.04057244211435318]},{"bufferView":1,"byteOffset":0,"count":4590,"componentType":5125,"type":"SCALAR"}],"bufferViews":[{"buffer":0,"byteOffset":0,"byteLength":9204,"byteStride":12,"target":34962},{"buffer":0,"byteOffset":9204,"byteLength":18360,"target":34963}],"buffers":[{"byteLength":27564,"uri":"boxes.bin"}]}