{
  "accessors": [
    {
      "bufferView": 2,
      "componentType": 5126,
      "count": 532,
      "max": [
        1.0,
        21.52706527709961,
        0.9749279022216797
      ],
      "min": [
        -0.9009688496589661,
        -1.0,
        -0.9749279022216797
      ],
      "type": "VEC3"
    },
    {
      "bufferView": 2,
      "byteOffset": 6384,
      "componentType": 5126,
      "count": 532,
      "max": [
        0.9009690880775452,
        1.0,
        0.974928081035614
      ],
      "min": [
        -1.0,
        -1.0,
        -0.974928081035614
      ],
      "type": "VEC3"
    },
    {
      "bufferView": 1,
      "componentType": 5126,
      "count": 532,
      "max": [
        0.65625,
        0.9960824847221375
      ],
      "min": [
        0.3592236042022705,
        0.003917515277862549
      ],
      "type": "VEC2"
    },
    {
      "bufferView": 0,
      "componentType": 5125,
      "count": 2130,
      "type": "SCALAR"
    },
    {
      "bufferView": 2,
      "byteOffset": 12768,
      "componentType": 5126,
      "count": 1405,
      "max": [
        0.4999999701976776,
        0.5250024795532227,
        0.4999999701976776
      ],
      "min": [
        -0.4999999701976776,
        -0.5,
        -0.4999999701976776
      ],
      "type": "VEC3"
    },
    {
      "bufferView": 2,
      "byteOffset": 29628,
      "componentType": 5126,
      "count": 1405,
      "max": [
        1.0,
        1.0,
        1.0
      ],
      "min": [
        -1.0,
        -1.0,
        -1.0
      ],
      "type": "VEC3"
    },
    {
      "bufferView": 1,
      "byteOffset": 4256,
      "componentType": 5126,
      "count": 1405,
      "max": [
        0.875,
        1.0
      ],
      "min": [
        0.125,
        0.0
      ],
      "type": "VEC2"
    },
    {
      "bufferView": 0,
      "byteOffset": 8520,
      "componentType": 5125,
      "count": 7872,
      "type": "SCALAR"
    },
    {
      "bufferView": 2,
      "byteOffset": 46488,
      "componentType": 5126,
      "count": 24,
      "max": [
        0.5,
        0.5,
        0.5
      ],
      "min": [
        -0.5,
        -0.5,
        -0.5
      ],
      "type": "VEC3"
    },
    {
      "bufferView": 2,
      "byteOffset": 46776,
      "componentType": 5126,
      "count": 24,
      "max": [
        1.0,
        1.0,
        1.0
      ],
      "min": [
        -1.0,
        -1.0,
        -1.0
      ],
      "type": "VEC3"
    },
    {
      "bufferView": 1,
      "byteOffset": 15496,
      "componentType": 5126,
      "count": 24,
      "max": [
        0.875,
        1.0
      ],
      "min": [
        0.125,
        0.0
      ],
      "type": "VEC2"
    },
    {
      "bufferView": 0,
      "byteOffset": 40008,
      "componentType": 5125,
      "count": 36,
      "type": "SCALAR"
    },
    {
      "bufferView": 2,
      "byteOffset": 47064,
      "componentType": 5126,
      "count": 4,
      "max": [
        0.5,
        1.1102230246251565e-16,
        0.5
      ],
      "min": [
        -0.5,
        -1.1102230246251565e-16,
        -0.5
      ],
      "type": "VEC3"
    },
    {
      "bufferView": 2,
      "byteOffset": 47112,
      "componentType": 5126,
      "count": 4,
      "max": [
        0.0,
        1.0,
        2.220446049250313e-16
      ],
      "min": [
        0.0,
        1.0,
        2.220446049250313e-16
      ],
      "type": "VEC3"
    },
    {
      "bufferView": 1,
      "byteOffset": 15688,
      "componentType": 5126,
      "count": 4,
      "max": [
        1.0,
        1.0
      ],
      "min": [
        0.0,
        0.0
      ],
      "type": "VEC2"
    },
    {
      "bufferView": 0,
      "byteOffset": 40152,
      "componentType": 5125,
      "count": 6,
      "type": "SCALAR"
    },
    {
      "bufferView": 2,
      "byteOffset": 47160,
      "componentType": 5126,
      "count": 4976,
      "max": [
        0.6234309077262878,
        0.5,
        0.5
      ],
      "min": [
        -0.6309879422187805,
        -0.7530124187469482,
        -0.5
      ],
      "type": "VEC3"
    },
    {
      "bufferView": 2,
      "byteOffset": 106872,
      "componentType": 5126,
      "count": 4976,
      "max": [
        1.0,
        1.0,
        1.0
      ],
      "min": [
        -1.0,
        -1.0,
        -1.0
      ],
      "type": "VEC3"
    },
    {
      "bufferView": 1,
      "byteOffset": 15720,
      "componentType": 5126,
      "count": 4976,
      "max": [
        0.875,
        1.0
      ],
      "min": [
        0.125,
        0.0
      ],
      "type": "VEC2"
    },
    {
      "bufferView": 0,
      "byteOffset": 40176,
      "componentType": 5125,
      "count": 94620,
      "type": "SCALAR"
    },
    {
      "bufferView": 2,
      "byteOffset": 166584,
      "componentType": 5126,
      "count": 1602,
      "max": [
        0.53998863697052,
        -0.7365522384643555,
        0.3151228725910187
      ],
      "min": [
        -0.15030142664909363,
        -1.6269469261169434,
        -0.3151228725910187
      ],
      "type": "VEC3"
    },
    {
      "bufferView": 2,
      "byteOffset": 185808,
      "componentType": 5126,
      "count": 1602,
      "max": [
        0.9992586970329285,
        -0.024166086688637733,
        0.9995067715644836
      ],
      "min": [
        -0.9991901516914368,
        -1.0,
        -0.9995068311691284
      ],
      "type": "VEC3"
    },
    {
      "bufferView": 1,
      "byteOffset": 55528,
      "componentType": 5126,
      "count": 1602,
      "max": [
        0.8472222089767456,
        0.9722222089767456
      ],
      "min": [
        0.4464285969734192,
        0.0
      ],
      "type": "VEC2"
    },
    {
      "bufferView": 0,
      "byteOffset": 418656,
      "componentType": 5125,
      "count": 9024,
      "type": "SCALAR"
    },
    {
      "bufferView": 2,
      "byteOffset": 205032,
      "componentType": 5126,
      "count": 2750,
      "max": [
        0.5023437738418579,
        0.0659509003162384,
        0.554017186164856
      ],
      "min": [
        -1.5423083305358887,
        -0.0659509152173996,
        -1.6126166582107544
      ],
      "type": "VEC3"
    },
    {
      "bufferView": 2,
      "byteOffset": 238032,
      "componentType": 5126,
      "count": 2750,
      "max": [
        0.999991238117218,
        1.0,
        0.9999772906303406
      ],
      "min": [
        -0.9999915957450867,
        -1.0,
        -0.9994890093803406
      ],
      "type": "VEC3"
    },
    {
      "bufferView": 1,
      "byteOffset": 68344,
      "componentType": 5126,
      "count": 2750,
      "max": [
        1.0,
        1.0
      ],
      "min": [
        0.0,
        -1.564621925354004e-07
      ],
      "type": "VEC2"
    },
    {
      "bufferView": 0,
      "byteOffset": 454752,
      "componentType": 5125,
      "count": 14400,
      "type": "SCALAR"
    },
    {
      "bufferView": 2,
      "byteOffset": 271032,
      "componentType": 5126,
      "count": 158,
      "max": [
        1.0,
        1.667007565498352,
        1.0000001192092896
      ],
      "min": [
        -1.000000238418579,
        -1.0,
        -1.000000238418579
      ],
      "type": "VEC3"
    },
    {
      "bufferView": 2,
      "byteOffset": 272928,
      "componentType": 5126,
      "count": 158,
      "max": [
        1.0,
        1.0,
        1.0
      ],
      "min": [
        -1.0,
        -1.0,
        -1.0
      ],
      "type": "VEC3"
    },
    {
      "bufferView": 1,
      "byteOffset": 90344,
      "componentType": 5126,
      "count": 158,
      "max": [
        0.65625,
        1.0
      ],
      "min": [
        0.3437499701976776,
        -7.450580596923828e-08
      ],
      "type": "VEC2"
    },
    {
      "bufferView": 0,
      "byteOffset": 512352,
      "componentType": 5125,
      "count": 414,
      "type": "SCALAR"
    }
  ],
  "asset": {
    "extras": {
      "author": "gadsby (https://sketchfab.com/gadsby)",
      "license": "CC-BY-4.0 (http://creativecommons.org/licenses/by/4.0/)",
      "source": "https://sketchfab.com/3d-models/suburban-street-lamp-fdc8b5ba548243448f9b918ea7892786",
      "title": "Suburban Street Lamp"
    },
    "generator": "Sketchfab-12.68.0",
    "version": "2.0"
  },
  "bufferViews": [
    {
      "buffer": 0,
      "byteLength": 514008,
      "name": "floatBufferViews",
      "target": 34963
    },
    {
      "buffer": 0,
      "byteLength": 91608,
      "byteOffset": 514008,
      "byteStride": 8,
      "name": "floatBufferViews",
      "target": 34962
    },
    {
      "buffer": 0,
      "byteLength": 274824,
      "byteOffset": 605616,
      "byteStride": 12,
      "name": "floatBufferViews",
      "target": 34962
    }
  ],
  "buffers": [
    {
      "byteLength": 880440,
      "uri": "scene.bin"
    }
  ],
  "materials": [
    {
      "doubleSided": true,
      "name": "body_01",
      "pbrMetallicRoughness": {
        "baseColorFactor": [
          0.5,
          0.5,
          0.5,
          1.0
        ],
        "metallicFactor": 0.0,
        "roughnessFactor": 0.6
      }
    },
    {
      "doubleSided": true,
      "name": "leg_02",
      "pbrMetallicRoughness": {
        "baseColorFactor": [
          0.5,
          0.5,
          0.5,
          1.0
        ],
        "metallicFactor": 0.0,
        "roughnessFactor": 0.6
      }
    },
    {
      "doubleSided": true,
      "name": "No_park_sign_01",
      "pbrMetallicRoughness": {
        "baseColorFactor": [
          0.5,
          0.5,
          0.5,
          1.0
        ],
        "metallicFactor": 0.0,
        "roughnessFactor": 0.6
      }
    },
    {
      "doubleSided": true,
      "name": "surface_ground",
      "pbrMetallicRoughness": {
        "baseColorFactor": [
          0.5,
          0.5,
          0.5,
          1.0
        ],
        "metallicFactor": 0.0,
        "roughnessFactor": 0.6
      }
    },
    {
      "doubleSided": true,
      "name": "lambert1",
      "pbrMetallicRoughness": {
        "baseColorFactor": [
          0.5,
          0.5,
          0.5,
          1.0
        ],
        "metallicFactor": 0.0,
        "roughnessFactor": 0.6
      }
    },
    {
      "doubleSided": true,
      "name": "head_light_bulb_01",
      "pbrMetallicRoughness": {
        "roughnessFactor": 0.9207483816249483
      }
    },
    {
      "doubleSided": true,
      "name": "cnctr_n_pipe_01",
      "pbrMetallicRoughness": {
        "baseColorFactor": [
          0.5,
          0.5,
          0.5,
          1.0
        ],
        "metallicFactor": 0.0,
        "roughnessFactor": 0.6
      }
    }
  ],
  "meshes": [
    {
      "name": "Body_geo_01_body_01_0",
      "primitives": [
        {
          "attributes": {
            "NORMAL": 1,
            "POSITION": 0,
            "TEXCOORD_0": 2
          },
          "indices": 3,
          "material": 0,
          "mode": 4
        }
      ]
    },
    {
      "name": "leg_01_leg_02_0",
      "primitives": [
        {
          "attributes": {
            "NORMAL": 5,
            "POSITION": 4,
            "TEXCOORD_0": 6
          },
          "indices": 7,
          "material": 1,
          "mode": 4
        }
      ]
    },
    {
      "name": "no_park_sign_geo_01_No_park_sign_01_0",
      "primitives": [
        {
          "attributes": {
            "NORMAL": 9,
            "POSITION": 8,
            "TEXCOORD_0": 10
          },
          "indices": 11,
          "material": 2,
          "mode": 4
        }
      ]
    },
    {
      "name": "surface_geo_01_surface_ground_0",
      "primitives": [
        {
          "attributes": {
            "NORMAL": 13,
            "POSITION": 12,
            "TEXCOORD_0": 14
          },
          "indices": 15,
          "material": 3,
          "mode": 4
        }
      ]
    },
    {
      "name": "full_bulb_01_lambert1_0",
      "primitives": [
        {
          "attributes": {
            "NORMAL": 17,
            "POSITION": 16,
            "TEXCOORD_0": 18
          },
          "indices": 19,
          "material": 4,
          "mode": 4
        }
      ]
    },
    {
      "name": "full_bulb_01_head_light_bulb_01_0",
      "primitives": [
        {
          "attributes": {
            "NORMAL": 21,
            "POSITION": 20,
            "TEXCOORD_0": 22
          },
          "indices": 23,
          "material": 5,
          "mode": 4
        }
      ]
    },
    {
      "name": "body_to_head_pipe_01_cnctr_n_pipe_01_0",
      "primitives": [
        {
          "attributes": {
            "NORMAL": 25,
            "POSITION": 24,
            "TEXCOORD_0": 26
          },
          "indices": 27,
          "material": 6,
          "mode": 4
        }
      ]
    },
    {
      "name": "b_t_h_pipe_cnnctr_01_cnctr_n_pipe_01_0",
      "primitives": [
        {
          "attributes": {
            "NORMAL": 29,
            "POSITION": 28,
            "TEXCOORD_0": 30
          },
          "indices": 31,
          "material": 6,
          "mode": 4
        }
      ]
    }
  ],
  "nodes": [
    {
      "children": [
        1
      ],
      "matrix": [
        0.40035513043403625,
        0.0,
        0.0,
        0.0,
        0.0,
        8.889669676693496e-17,
        -0.40035513043403625,
        0.0,
        0.0,
        0.40035513043403625,
        8.889669676693496e-17,
        0.0,
        0.0,
        0.0,
        0.0,
        1.0
      ],
      "name": "Sketchfab_model"
    },
    {
      "children": [
        2
      ],
      "matrix": [
        1.0,
        0.0,
        0.0,
        0.0,
        0.0,
        0.0,
        1.0,
        0.0,
        0.0,
        -1.0,
        0.0,
        0.0,
        0.0,
        0.0,
        0.0,
        1.0
      ],
      "name": "2cd29170c6804e0588a65d6a8fccc078.fbx"
    },
    {
      "children": [
        3
      ],
      "name": "RootNode"
    },
    {
      "children": [
        4,
        9,
        12,
        15
      ],
      "name": "Street_Lamb"
    },
    {
      "children": [
        5,
        7
      ],
      "name": "Body_grp_01"
    },
    {
      "children": [
        6
      ],
      "matrix": [
        0.1819554567337036,
        0.0,
        0.0,
        0.0,
        0.0,
        0.1819554567337036,
        0.0,
        0.0,
        0.0,
        0.0,
        0.1819554567337036,
        0.0,
        0.0,
        -2.3157668113708496,
        -7.589415207398531e-17,
        1.0
      ],
      "name": "Body_geo_01"
    },
    {
      "mesh": 0,
      "name": "Body_geo_01_body_01_0"
    },
    {
      "children": [
        8
      ],
      "matrix": [
        0.43424877524375916,
        0.0,
        0.0,
        0.0,
        0.0,
        0.43424877524375916,
        0.0,
        0.0,
        0.0,
        0.0,
        0.43424877524375916,
        0.0,
        0.0,
        -2.7096478939056396,
        0.0,
        1.0
      ],
      "name": "leg_01"
    },
    {
      "mesh": 1,
      "name": "leg_01_leg_02_0"
    },
    {
      "children": [
        10
      ],
      "name": "no_park_sign_grp"
    },
    {
      "children": [
        11
      ],
      "matrix": [
        0.01793935137676987,
        0.0,
        0.004976307738372768,
        0.0,
        0.0,
        0.8256046175956726,
        0.0,
        0.0,
        -0.12284080676564924,
        0.0,
        0.4428352328337852,
        0.0,
        0.1883365362882614,
        -0.6490036845207214,
        0.013375733979046345,
        1.0
      ],
      "name": "no_park_sign_geo_01"
    },
    {
      "mesh": 2,
      "name": "no_park_sign_geo_01_No_park_sign_01_0"
    },
    {
      "children": [
        13
      ],
      "name": "Surface_grp"
    },
    {
      "children": [
        14
      ],
      "matrix": [
        1.0,
        0.0,
        0.0,
        0.0,
        0.0,
        1.0,
        0.0,
        0.0,
        0.0,
        0.0,
        1.0,
        0.0,
        0.0,
        -2.9233057498931885,
        0.0,
        1.0
      ],
      "name": "surface_geo_01"
    },
    {
      "mesh": 3,
      "name": "surface_geo_01_surface_ground_0"
    },
    {
      "children": [
        16,
        20
      ],
      "name": "Head"
    },
    {
      "children": [
        17
      ],
      "name": "head_bulb_01"
    },
    {
      "children": [
        18,
        19
      ],
      "matrix": [
        1.1046016216278076,
        0.0,
        0.0,
        0.0,
        0.0,
        0.15027949213981628,
        0.0,
        0.0,
        0.0,
        0.0,
        0.7194167971611023,
        0.0,
        2.368041515350342,
        2.870893955230713,
        0.0,
        1.0
      ],
      "name": "full_bulb_01"
    },
    {
      "mesh": 4,
      "name": "full_bulb_01_lambert1_0"
    },
    {
      "mesh": 5,
      "name": "full_bulb_01_head_light_bulb_01_0"
    },
    {
      "children": [
        21,
        24
      ],
      "name": "Head_pipe"
    },
    {
      "children": [
        22
      ],
      "name": "pipe"
    },
    {
      "children": [
        23
      ],
      "matrix": [
        0.8005300164222717,
        0.0,
        0.0,
        0.0,
        0.0,
        -1.7775337122711215e-16,
        0.8005300164222717,
        0.0,
        0.0,
        -0.8005300164222717,
        -1.7775337122711215e-16,
        0.0,
        1.4048627614974976,
        1.6254733800888062,
        7.218551889959484e-16,
        1.0
      ],
      "name": "body_to_head_pipe_01"
    },
    {
      "mesh": 6,
      "name": "body_to_head_pipe_01_cnctr_n_pipe_01_0"
    },
    {
      "children": [
        25
      ],
      "name": "connector"
    },
    {
      "children": [
        26
      ],
      "matrix": [
        0.06517430394887924,
        0.0,
        0.0,
        0.0,
        0.0,
        0.1103406697511673,
        0.0,
        0.0,
        0.0,
        0.0,
        0.06517430394887924,
        0.0,
        0.2165260761976242,
        1.0060774087905884,
        0.0007493758457712829,
        1.0
      ],
      "name": "b_t_h_pipe_cnnctr_01"
    },
    {
      "mesh": 7,
      "name": "b_t_h_pipe_cnnctr_01_cnctr_n_pipe_01_0"
    }
  ],
  "scene": 0,
  "scenes": [
    {
      "name": "Sketchfab_Scene",
      "nodes": [
        0
      ]
    }
  ]
}
